<?xml version="1.0" encoding="UTF-8" standalone="no"?>
<svg
   xmlns:dc="http://purl.org/dc/elements/1.1/"
   xmlns:cc="http://creativecommons.org/ns#"
   xmlns:rdf="http://www.w3.org/1999/02/22-rdf-syntax-ns#"
   xmlns:svg="http://www.w3.org/2000/svg"
   xmlns="http://www.w3.org/2000/svg"
   xmlns:sodipodi="http://sodipodi.sourceforge.net/DTD/sodipodi-0.dtd"
   xmlns:inkscape="http://www.inkscape.org/namespaces/inkscape"
   version="1.1"
   id="svg2"
   xml:space="preserve"
   width="640"
   height="161.33333"
   viewBox="0 0 640 161.33333"
   sodipodi:docname="Merlion - EPS (RGB Color) - Logo-5.eps"><metadata
     id="metadata8"><rdf:RDF><cc:Work
         rdf:about=""><dc:format>image/svg+xml</dc:format><dc:type
           rdf:resource="http://purl.org/dc/dcmitype/StillImage" /></cc:Work></rdf:RDF></metadata><defs
     id="defs6" /><sodipodi:namedview
     pagecolor="#ffffff"
     bordercolor="#666666"
     borderopacity="0"
     objecttolerance="10"
     gridtolerance="10"
     guidetolerance="10"
     inkscape:pageopacity="0"
     inkscape:pageshadow="2"
     inkscape:window-width="640"
     inkscape:window-height="480"
     id="namedview4" /><g
     id="g10"
     inkscape:groupmode="layer"
     inkscape:label="ink_ext_XXXXXX"
     transform="matrix(1.3333333,0,0,-1.3333333,0,161.33333)"><g
       id="g12"
       transform="scale(0.1)"><path
         d="m 2274.48,441.102 -0.96,337.796 h -64.27 L 2084.84,568.984 1958.48,778.898 h -64.66 V 441.102 h 73.35 v 198.336 l 98.85,-162.625 h 35.22 l 99.33,166.964 0.48,-202.675 z M 4122.79,778.898 V 573.805 l -167.93,205.093 h -64.67 V 441.102 h 77.21 V 646.191 L 4135.82,441.102 H 4200 V 778.898 Z M 3646.5,435.309 c 106.16,0 184.82,73.832 184.82,174.691 0,100.859 -78.66,174.688 -184.82,174.688 -106.65,0 -184.83,-74.313 -184.83,-174.688 0,-100.375 78.18,-174.691 184.83,-174.691 z m 0,66.593 c -60.32,0 -105.68,43.914 -105.68,108.098 0,64.18 45.36,108.094 105.68,108.094 60.32,0 105.68,-43.914 105.68,-108.094 0,-64.184 -45.36,-108.098 -105.68,-108.098 z m -321.87,-60.8 h 78.17 v 337.796 h -78.17 z m -291.47,0 h 247.55 v 63.699 h -169.38 v 274.097 h -78.17 z m -55.5,0 -75.76,108.574 c 43.92,18.82 69.49,55.98 69.49,106.656 0,75.754 -56.46,122.566 -146.7,122.566 H 2678.47 V 441.102 h 78.18 v 94.097 h 68.04 3.86 l 65.15,-94.097 z m -85.41,215.23 c 0,-36.684 -24.13,-58.879 -71.9,-58.879 h -63.7 v 117.746 h 63.7 c 47.77,0 71.9,-21.715 71.9,-58.867 z m -459.89,-152.5 v 78.18 h 156.84 v 60.801 h -156.84 v 73.351 h 177.59 v 62.734 H 2354.67 V 441.102 h 261.55 v 62.73 h -183.86"
         style="fill:#02144a;fill-opacity:1;fill-rule:evenodd;stroke:#ffffff;stroke-opacity:1;stroke-width:4;shape-rendering='geometricPrecision'"
         id="path14" /><path
         d="m 1065.97,743.828 c 0,0 8.85,12.813 39,-1.676 0,0 -0.18,-15.218 -28.17,-15.961 -27.98,-0.742 -16.25,3.34 -16.25,3.34 z m 216,235.262 c 33.39,-0.93 64.69,-6.664 93.66,-16.438 73.3,-24.73 131.03,-74.964 170.04,-138.082 50.7,-4.425 96.24,-26.836 130.22,-60.812 38.07,-38.07 61.62,-90.668 61.62,-148.754 0,-58.09 -23.55,-110.684 -61.62,-148.762 -35.66,-35.66 -84.07,-58.582 -137.8,-61.34 -24.01,-34.597 -54.85,-65.882 -92.98,-91.957 -11.63,-7.953 -23.95,-15.422 -36.97,-22.359 -4.94,34.691 -37.29,36.242 -57.78,143.547 14.54,0.133 25.6,-0.66 42.07,-1.391 -1.45,4.735 -6.65,12.403 -11.6,20.68 l -0.69,-0.379 c -12.21,22.566 -20.31,53.23 -25.22,77.07 l -0.06,0.239 -0.36,1.769 -0.02,0.102 c -4,19.457 -5.87,34.316 -6.1,36.238 l -0.01,0.004 -0.01,0.152 -0.01,0.055 c -0.95,6.734 -1.55,12.926 -1.89,18.254 l 33.23,-7.399 c -28.19,89.313 -12.96,139.621 -76.01,196.008 l 6.64,27.676 c -42.1,-5.18 -93.64,32.449 -168.74,17.172 -25.78,-13.879 -29.9,-4.641 -60.11,-39.168 -19.5,-22.297 -43.05,-16.387 -50.25,-49.328 -31.657,-1.817 -68.822,-4.805 -66.271,-40.227 0.895,-12.512 2.387,-43.351 6.188,-51.562 8.34,-17.969 18.679,-9.688 36.493,-15.973 2.96,3.641 5.95,6.867 8.98,9.723 l 8.26,-13.383 c 0,0 3.74,14.828 15.7,27.48 l 0.75,1.453 c 51.81,17.887 93.65,-53.101 21.36,-60.925 l -17.12,0.101 c -10.31,8.125 -13.35,20.196 -13.35,20.196 l -5.96,-9.653 -19.29,-10.304 c -0.25,-20.961 -7.647,-25.223 -3.74,-46.317 15.81,-7.058 33.41,-7.785 55.03,-8.43 -83.305,-187.093 -145.844,-12.105 -51.28,-211.839 34.44,-75.575 30.33,-142.817 17.4,-197.696 -25.124,5.657 -48.354,15.949 -76.874,33.813 -49.176,30.816 -68.945,67.164 -83.996,94.816 -0.977,1.797 -1.922,3.539 -2.848,5.215 -44.457,-2.937 -84.386,3.734 -119.629,19.172 -26.101,11.426 -49.363,27.504 -69.738,47.887 50.067,83.578 142.813,203.093 290.836,270.531 0,0 -221.652,-26.735 -351.098,-171.731 -5,16.571 -8.328,33.911 -9.921,51.364 -3.5,38.257 1.304,77.707 15.003,111.179 24.196,59.118 42.625,73.977 69.11,95.325 3.574,2.878 7.336,5.91 11.289,9.25 l -1.543,6.418 c -48.211,199.605 124.316,397.69 326.349,397.69 95.65,0 181.6,-41.55 240.8,-107.565 12.7,-5.332 19.86,-8.805 19.86,-8.805"
         style="fill:#00a1e0;fill-opacity:1;fill-rule:evenodd;stroke:none"
         id="path16" /></g></g></svg>
