<?xml version="1.0" encoding="utf-8"?>
<svg viewBox="0 0 475 125" xmlns="http://www.w3.org/2000/svg">
  <defs>
    <mask id="merlion">
      <circle style="fill: rgb(255, 255, 255); fill-rule: evenodd;" cx="1059.161" cy="-552.178" r="436.487"/>
      <path d="M 1065.97 743.828 C 1065.97 743.828 1074.82 756.641 1104.97 742.152 C 1104.97 742.152 1104.79 726.934 1076.8 726.191 C 1048.82 725.449 1060.55 729.531 1060.55 729.531 L 1065.97 743.828 Z M 1019.692 105.788 C 1186.644 50.493 1280.918 121.345 1361.865 159.466 C 1413.367 183.72 1460.719 212.499 1408.14 290.586 C 1403.2 325.277 1370.85 326.828 1350.36 434.133 C 1364.9 434.266 1375.96 433.473 1392.43 432.742 C 1390.98 437.477 1385.78 445.145 1380.83 453.422 L 1380.14 453.043 C 1367.93 475.609 1359.83 506.273 1354.92 530.113 L 1354.86 530.352 L 1354.5 532.121 L 1354.48 532.223 C 1350.48 551.68 1348.61 566.539 1348.38 568.461 L 1348.37 568.465 L 1348.36 568.617 L 1348.35 568.672 C 1347.4 575.406 1346.8 581.598 1346.46 586.926 L 1379.69 579.527 C 1351.5 668.84 1366.73 719.148 1303.68 775.535 L 1310.32 803.211 C 1268.22 798.031 1216.68 835.66 1141.58 820.383 C 1115.8 806.504 1111.68 815.742 1081.47 781.215 C 1061.97 758.918 1038.42 764.828 1031.22 731.887 C 999.563 730.07 962.398 727.082 964.949 691.66 C 965.844 679.148 967.336 648.309 971.137 640.098 C 979.477 622.129 989.816 630.41 1007.63 624.125 C 1010.59 627.766 1013.58 630.992 1016.61 633.848 L 1024.87 620.465 C 1024.87 620.465 1028.61 635.293 1040.57 647.945 L 1041.32 649.398 C 1093.13 667.285 1134.97 596.297 1062.68 588.473 L 1045.56 588.574 C 1035.25 596.699 1032.21 608.77 1032.21 608.77 L 1026.25 599.117 L 1006.96 588.813 C 1006.71 567.852 999.313 563.59 1003.22 542.496 C 1019.03 535.438 1036.63 534.711 1058.25 534.066 C 974.945 346.973 912.406 521.961 1006.97 322.227 C 1041.41 246.652 1037.3 179.41 1024.37 124.531 M 962.121 595.965 C 962.121 595.965 749.273 571.44 619.827 426.444 C 640.883 383.102 637.567 365.548 665.799 354.572 C 788.567 533.219 960.399 597.222 956.138 594.244" style="fill:#000000;fill-opacity:1;fill-rule:evenodd;stroke:none'" transform="matrix(1, 0, 0, -1, 0, 0)"/>
    </mask>
  </defs>
  <g id="g10" transform="matrix(0.13, 0, 0, 0.13, -80.57, 135.32)">
    <path d="m 2274.48,441.102 -0.96,337.796 h -64.27 L 2084.84,568.984 1958.48,778.898 h -64.66 V 441.102 h 73.35 v 198.336 l 98.85,-162.625 h 35.22 l 99.33,166.964 0.48,-202.675 z M 4122.79,778.898 V 573.805 l -167.93,205.093 h -64.67 V 441.102 h 77.21 V 646.191 L 4135.82,441.102 H 4200 V 778.898 Z M 3646.5,435.309 c 106.16,0 184.82,73.832 184.82,174.691 0,100.859 -78.66,174.688 -184.82,174.688 -106.65,0 -184.83,-74.313 -184.83,-174.688 0,-100.375 78.18,-174.691 184.83,-174.691 z m 0,66.593 c -60.32,0 -105.68,43.914 -105.68,108.098 0,64.18 45.36,108.094 105.68,108.094 60.32,0 105.68,-43.914 105.68,-108.094 0,-64.184 -45.36,-108.098 -105.68,-108.098 z m -321.87,-60.8 h 78.17 v 337.796 h -78.17 z m -291.47,0 h 247.55 v 63.699 h -169.38 v 274.097 h -78.17 z m -55.5,0 -75.76,108.574 c 43.92,18.82 69.49,55.98 69.49,106.656 0,75.754 -56.46,122.566 -146.7,122.566 H 2678.47 V 441.102 h 78.18 v 94.097 h 68.04 3.86 l 65.15,-94.097 z m -85.41,215.23 c 0,-36.684 -24.13,-58.879 -71.9,-58.879 h -63.7 v 117.746 h 63.7 c 47.77,0 71.9,-21.715 71.9,-58.867 z m -459.89,-152.5 v 78.18 h 156.84 v 60.801 h -156.84 v 73.351 h 177.59 v 62.734 H 2354.67 V 441.102 h 261.55 v 62.73 h -183.86" style="fill:#02144a;fill-opacity:1;fill-rule:evenodd;stroke:#ffffff;stroke-opacity:1;stroke-width:4;shape-rendering='geometricPrecision'" id="path14" transform="matrix(1, 0, 0, -1, -160, 35)"/>
    <circle style="fill: rgb(0, 161, 224); fill-rule: evenodd;" cx="1059.161" cy="-552.178" r="436.487" mask="url(#merlion)"/>
  </g>
</svg>